<?xml version="1.0" encoding="utf-8"?>
<!-- Generator: Adobe Illustrator 16.0.0, SVG Export Plug-In . SVG Version: 6.00 Build 0)  -->
<!DOCTYPE svg PUBLIC "-//W3C//DTD SVG 1.1//EN" "http://www.w3.org/Graphics/SVG/1.1/DTD/svg11.dtd">
<svg version="1.1" id="Layer_1" xmlns="http://www.w3.org/2000/svg" xmlns:xlink="http://www.w3.org/1999/xlink" x="0px" y="0px"
	 width="900px" height="600px" viewBox="0 0 900 600" enable-background="new 0 0 900 600" xml:space="preserve">
<circle fill="#ECF0F1" cx="450" cy="300" r="300"/>
<circle fill="#71A2C5" cx="450" cy="300" r="300"/>
<path fill="#F0BA7D" d="M417.827,279.644l-8.152,40.963L382.362,330l16.164,254.993l103.924-0.59l4.854-259.22l-17.443-5.488
	l-8.89-41.788L417.827,279.644L417.827,279.644z"/>
<path fill="#FFE18B" d="M376.163,401.145c45.47,22.045,92.244,26.673,141.483,1.248l-1.679,190.314
	C494.737,597.469,472.665,600,450,600c-26.081,0-51.382-3.333-75.506-9.588L376.163,401.145z"/>
<path fill="#EEF3F7" d="M498.632,322.817l79.209,21.603c20.54,6.341,38.893,18.486,39.479,40.312l4.344,161.308
	c-18.051,12.618-37.556,23.292-58.211,31.74l-5.056-89.209l-13.872,96.216C514.81,594.655,483.03,600,450.001,600
	c-0.862,0-1.718-0.025-2.579-0.033l-0.033-81.781L498.632,322.817z"/>
<g>
	<path fill="#FFFFFF" d="M497.877,322.258l10.438,4.21l35.605,53.452l-41.734-0.672l25.868,13.842l-80.663,125.097L497.877,322.258
		L497.877,322.258z"/>
	<path fill="#FFFFFF" d="M405.966,322.001l-79.579,20.202c-20.651,5.979-39.211,17.798-40.185,39.61l-7.338,164.593
		c17.893,12.451,37.207,22.997,57.648,31.362l6.773-91.093l12.393,98.179c28.883,9.566,59.714,14.843,91.743,15.114l-0.033-81.782
		L405.966,322.001L405.966,322.001z"/>
</g>
<path fill="#EEF3F7" d="M406.729,321.452l-12.445,4.768l-34.605,52.074l41.741,0.067l-26.109,13.383l72.08,126.441L406.729,321.452
	L406.729,321.452z"/>
<path fill="#FED298" d="M363.958,181.407c-1.33,13.425,1.358,43.233,17.644,42.099c0,0,23.439,68.314,68.567,76.05
	c38.96-7.119,62.66-68.992,64.459-74.878c5.366,1.833,20.386-23.151,8.872-43.591c-3.302-5.862-12.65-1.116-12.65-1.116
	l-0.72-17.068c-61.565,5.979-99.956-53.567-99.956-53.567c-23.469,25.529-29.115,40.1-31.625,71.852c0,0-4.408-2.736-9.3-2.84
	C367.775,178.313,365.884,179.598,363.958,181.407L363.958,181.407z"/>
<path fill="#666666" d="M409.674,320.606l7.975-40.049c-23.102-22.745-35.147-57.052-35.147-57.052
	c-15.74,1.755-22.062-41.626-11.471-43.142c4.843-0.693,8.086,0.824,8.086,0.824c2.385-33.525,8.842-43.719,31.058-71.853
	c0,0,38.811,65.297,100.328,59.317l0.88,14.079c2.908-2.859,8.226-5.546,12.655,1.739c7.207,11.854-2.221,38.792-10.949,40.437
	c-1.236,4.153-10.95,34.799-31.524,55.799l8.296,38.992c23.084,7.476,45.342,13.249,67.684,19.189
	c-11.35-69.186-17.854-144.052-31.405-207.959c-13.005-61.325-84.1-78.477-124.982-51.241c0,0-35.252,14.204-41.688,61.312
	c-6.434,47.106-3.972,51.646-3.972,51.646l-11.359,145.054C365.198,332.352,389.586,327.514,409.674,320.606L409.674,320.606z"/>
<path fill="#FEFEFE" d="M558.43,490.915c-11.705-2.021-19.559-13.151-17.538-24.858c2.021-11.704,13.152-19.561,24.858-17.54
	c11.708,2.021,19.56,13.154,17.539,24.862C581.268,485.085,570.137,492.937,558.43,490.915z"/>
<path fill="#FFCD8B" d="M558.644,489.68c-11.025-1.904-18.421-12.382-16.517-23.408s12.385-18.423,23.412-16.519
	c11.025,1.905,18.419,12.388,16.516,23.413C580.148,484.191,569.671,491.584,558.644,489.68z"/>
<path fill="#EBECEC" d="M560.182,480.766c-6.097-1.053-10.191-6.857-9.138-12.954c1.052-6.103,6.854-10.19,12.951-9.139
	c6.103,1.054,10.193,6.851,9.14,12.953C572.084,477.725,566.284,481.817,560.182,480.766L560.182,480.766z"/>
<path fill="#FEFEFE" d="M561.5,459.873l4.927,0.85l2.648-15.34l-4.924-0.85L561.5,459.873L561.5,459.873z"/>
<path fill="#FFE18B" d="M396.529,495.171l9.231-1.831c3.921-0.779,7.171-3.09,9.241-6.187c2.068-3.098,2.967-6.981,2.187-10.903
	l-10.854-54.689c-4.097-20.637-20.242-31.161-38.691-33.493c-7.07-0.896-14.481-0.569-21.66,0.854
	c-7.185,1.42-14.15,3.949-20.339,7.475c-16.118,9.179-26.981,25.052-22.877,45.723l10.854,54.69c0.779,3.921,3.092,7.168,6.188,9.24
	l0.007-0.003c3.099,2.073,6.978,2.968,10.897,2.189l9.225-1.832l-0.754-3.803l-9.228,1.832c-2.875,0.57-5.726-0.087-7.995-1.602
	l0.001-0.002c-2.271-1.521-3.968-3.903-4.54-6.774l-10.854-54.69c-3.723-18.756,6.231-33.212,20.979-41.605
	c5.828-3.321,12.402-5.705,19.187-7.052c6.784-1.344,13.772-1.647,20.431-0.808c16.884,2.135,31.651,11.698,35.365,30.418
	l10.857,54.689c0.569,2.874-0.092,5.721-1.608,7.995c-1.52,2.269-3.903,3.966-6.776,4.534l-9.23,1.831L396.529,495.171
	L396.529,495.171z"/>
<path fill="#4D4D4D" d="M409.26,429.666l-1.658-8.354c-4.221-21.278-20.833-32.121-39.8-34.521
	c-7.205-0.908-14.753-0.585-22.066,0.868c-7.316,1.449-14.414,4.027-20.721,7.615c-16.577,9.441-27.742,25.785-23.514,47.098
	l1.661,8.354l6.334-1.26l-1.658-8.354c-3.594-18.114,6.056-32.1,20.346-40.238c5.711-3.251,12.151-5.585,18.805-6.905
	c6.652-1.32,13.501-1.617,20.025-0.793c16.361,2.067,30.664,11.311,34.255,29.392l1.657,8.354L409.26,429.666L409.26,429.666z"/>
<g>
	<path fill="#FFCD8B" d="M332.62,508.689l4.938-0.98c1.238,1.391,3.157,2.105,5.111,1.718c2.938-0.582,4.847-3.436,4.264-6.376
		c-0.582-2.935-3.435-4.845-6.373-4.26c-1.958,0.388-3.457,1.783-4.068,3.54l-4.936,0.979L332.62,508.689z"/>
	<path fill="#FFCD8B" d="M400.453,495.227l-4.934,0.98c-0.613,1.756-2.112,3.151-4.067,3.539c-2.937,0.581-5.789-1.326-6.373-4.266
		c-0.581-2.935,1.327-5.789,4.262-6.371c1.956-0.389,3.876,0.329,5.111,1.718l4.936-0.981L400.453,495.227L400.453,495.227z"/>
</g>
<path fill="#666666" d="M348.738,387.163l-1.883-9.489l-3.744,0.746l-3.738,0.74l1.904,9.581c1.426-0.417,2.87-0.77,4.328-1.058
	C346.643,387.476,347.688,387.304,348.738,387.163z"/>
<g>
	<path fill="#0F7986" d="M340.661,503.41c0.891-0.177,1.466-1.043,1.289-1.928c-0.176-0.889-1.037-1.468-1.928-1.291
		s-1.466,1.039-1.291,1.929C338.909,503.008,339.771,503.588,340.661,503.41L340.661,503.41z"/>
	<path fill="#0F7986" d="M389.474,493.705c0.887-0.176,1.464-1.039,1.287-1.926c-0.177-0.891-1.037-1.468-1.928-1.292
		c-0.891,0.177-1.466,1.039-1.289,1.931C387.718,493.303,388.582,493.881,389.474,493.705z"/>
</g>
<path fill="#FEFEFE" d="M559.583,480.661c-5.769-0.996-9.638-6.481-8.643-12.252c0.996-5.767,6.479-9.637,12.249-8.642
	c5.768,0.996,9.639,6.479,8.644,12.247C570.837,477.786,565.352,481.657,559.583,480.661z"/>
<g>
	<path fill="#4D4D4D" d="M394.41,326.441c-0.167,0.001-58.432,0.484-48.589,51.459l-5.417,1.036
		c-11.095-57.467,53.758-57.996,53.944-57.999L394.41,326.441L394.41,326.441z"/>
	<path fill="#4D4D4D" d="M510.674,321.2c9.505,0.256,27.884,2.847,42.024,20.052c13.841,16.837,23.544,47.757,16.288,104.447
		l-5.462-0.691c7.022-54.871-2.052-84.411-15.077-100.259c-12.727-15.481-29.319-17.814-37.903-18.046L510.674,321.2L510.674,321.2z
		"/>
</g>
</svg>
