<?xml version="1.0" encoding="utf-8"?>
<!-- Generator: Adobe Illustrator 16.0.0, SVG Export Plug-In . SVG Version: 6.00 Build 0)  -->
<!DOCTYPE svg PUBLIC "-//W3C//DTD SVG 1.1//EN" "http://www.w3.org/Graphics/SVG/1.1/DTD/svg11.dtd">
<svg version="1.1" id="Capa_1" xmlns="http://www.w3.org/2000/svg" xmlns:xlink="http://www.w3.org/1999/xlink" x="0px" y="0px"
	 width="900px" height="600px" viewBox="0 0 900 600" enable-background="new 0 0 900 600" xml:space="preserve">
<path fill="#E7ECED" d="M750,301.043l-76.996,76.996c-122.582,122.582-321.329,122.582-443.912,0L150,298.946l76.996-76.996
	c122.582-122.582,321.33-122.582,443.912,0L750,301.043z"/>
<circle fill="#72A2C4" cx="449.702" cy="299.68" r="127.723"/>
<path fill="#FFFFFF" d="M375.197,299.681c-5.875,0-10.644-4.769-10.644-10.644c0-41.084,33.421-74.505,74.505-74.505
	c5.875,0,10.644,4.768,10.644,10.644c0,5.875-4.769,10.644-10.644,10.644c-29.345,0-53.218,23.874-53.218,53.218
	C385.84,294.912,381.083,299.681,375.197,299.681z"/>
</svg>
