<?xml version="1.0" encoding="utf-8"?>
<!-- Generator: Adobe Illustrator 16.0.0, SVG Export Plug-In . SVG Version: 6.00 Build 0)  -->
<!DOCTYPE svg PUBLIC "-//W3C//DTD SVG 1.1//EN" "http://www.w3.org/Graphics/SVG/1.1/DTD/svg11.dtd">
<svg version="1.1" id="Capa_1" xmlns="http://www.w3.org/2000/svg" xmlns:xlink="http://www.w3.org/1999/xlink" x="0px" y="0px"
	 width="900px" height="600px" viewBox="0 0 900 600" enable-background="new 0 0 900 600" xml:space="preserve">
<circle fill="#71A2C5" cx="449.999" cy="300" r="300"/>
<path opacity="0.1" enable-background="new    " d="M750,300c0-15.913-1.264-31.527-3.65-46.769L623.285,130.166
	c-0.308-0.354-0.636-0.683-0.99-0.99l-0.045-0.045l-0.004,0.005c-1.758-1.51-4.016-2.455-6.516-2.455H375.974h-95.735
	c-3.325,0-6.021,2.696-6.021,6.021v95.588c0,1.656,0.671,3.154,1.753,4.242l-0.002,0.001l0.008,0.008
	c0.004,0.004,0.007,0.007,0.009,0.011l13.637,13.635h-9.385c-3.325,0-6.021,2.694-6.021,6.021v95.587
	c0,1.639,0.665,3.116,1.726,4.201l-0.011,0.002l0.036,0.035c0.011,0.011,0.022,0.022,0.033,0.033l13.627,13.626h-9.389
	c-3.325,0-6.021,2.695-6.021,6.021v95.588c0,1.635,0.663,3.108,1.721,4.195l-0.007,0.004l0.027,0.027
	c0.018,0.018,0.036,0.036,0.054,0.054l124.238,124.238c16.188,2.703,32.79,4.182,49.746,4.182C615.686,600,750,465.686,750,300z"/>
<path fill="#FFCD8B" d="M375.974,353.814h-95.735c-3.325,0-6.021-2.695-6.021-6.021v-95.588c0-3.325,2.696-6.021,6.021-6.021h95.735
	V353.814z"/>
<path fill="#EBF0F3" d="M615.73,353.814H375.974V246.186h239.756c5.551,0,10.051,4.5,10.051,10.051v87.528
	C625.78,349.314,621.281,353.814,615.73,353.814z"/>
<g>
	<rect x="393.093" y="324.891" fill="#D5D6DB" width="215.616" height="11.382"/>
	<rect x="393.093" y="294.375" fill="#D5D6DB" width="69.553" height="11.381"/>
	<rect x="393.093" y="263.86" fill="#D5D6DB" width="120.769" height="11.382"/>
</g>
<path fill="#3A556A" d="M331.156,315.113h-16.569v-8.175c0-2.979,0.38-5.212,1.147-6.703c0.761-1.487,2.375-3.507,4.85-6.051
	l7.411-7.627c1.091-1.309,1.635-2.998,1.635-5.069c0-2.075-0.582-3.798-1.744-5.182c-1.16-1.378-2.688-2.069-4.58-2.069
	c-1.887,0-3.468,0.82-4.742,2.456c-1.269,1.635-2.05,3.794-2.341,6.486h-17.334c0.801-7.266,3.453-12.972,7.958-17.117
	c4.506-4.139,10.157-6.214,16.953-6.214c6.792,0,12.315,1.853,16.569,5.562c4.249,3.705,6.377,8.828,6.377,15.369
	c0,2.91-0.365,5.069-1.092,6.486c-0.727,1.417-1.234,2.435-1.527,3.053c-0.292,0.618-0.963,1.546-2.016,2.781
	c-1.058,1.234-1.763,2.035-2.129,2.396c-1.744,1.744-3.393,3.378-4.96,4.905c-1.562,1.527-2.599,2.781-3.103,3.759
	c-0.514,0.983-0.766,2.455-0.766,4.416v6.538H331.156z M316.276,335.881c-1.853-1.853-2.781-4.126-2.781-6.812
	c0-2.688,0.928-4.961,2.781-6.817c1.853-1.853,4.125-2.776,6.812-2.776c2.687,0,4.96,0.924,6.812,2.776
	c1.853,1.856,2.781,4.13,2.781,6.817s-0.929,4.96-2.781,6.812c-1.853,1.853-4.125,2.78-6.812,2.78
	C320.402,338.661,318.129,337.733,316.276,335.881z"/>
<path fill="#FFE18B" d="M375.974,234.308h-95.735c-3.325,0-6.021-2.696-6.021-6.021V132.7c0-3.325,2.696-6.021,6.021-6.021h95.735
	V234.308z"/>
<path fill="#EBF0F3" d="M615.73,234.308H375.974V126.679h239.756c5.551,0,10.051,4.5,10.051,10.051v87.528
	C625.78,229.809,621.281,234.308,615.73,234.308z"/>
<g>
	<rect x="393.093" y="205.373" fill="#D5D6DB" width="215.616" height="11.382"/>
	<rect x="393.093" y="174.89" fill="#D5D6DB" width="69.553" height="11.382"/>
	<rect x="393.093" y="144.366" fill="#D5D6DB" width="120.769" height="11.382"/>
</g>
<path fill="#3A556A" d="M331.156,195.607h-16.569v-8.175c0-2.979,0.38-5.211,1.147-6.703c0.761-1.487,2.375-3.507,4.85-6.051
	l7.411-7.627c1.091-1.309,1.635-2.998,1.635-5.069c0-2.075-0.582-3.799-1.744-5.182c-1.16-1.379-2.688-2.069-4.58-2.069
	c-1.887,0-3.468,0.82-4.742,2.455c-1.269,1.636-2.05,3.794-2.341,6.486h-17.334c0.801-7.266,3.453-12.972,7.958-17.117
	c4.506-4.139,10.157-6.214,16.953-6.214c6.792,0,12.315,1.853,16.569,5.562c4.249,3.705,6.377,8.828,6.377,15.369
	c0,2.91-0.365,5.069-1.092,6.486c-0.727,1.417-1.234,2.435-1.527,3.053c-0.292,0.618-0.963,1.546-2.016,2.781
	c-1.058,1.234-1.763,2.035-2.129,2.396c-1.744,1.744-3.393,3.378-4.96,4.906c-1.562,1.527-2.599,2.781-3.103,3.758
	c-0.514,0.983-0.766,2.456-0.766,4.417v6.538H331.156z M316.276,216.375c-1.853-1.853-2.781-4.125-2.781-6.812
	s0.928-4.96,2.781-6.817c1.853-1.853,4.125-2.777,6.812-2.777c2.687,0,4.96,0.924,6.812,2.777c1.853,1.858,2.781,4.129,2.781,6.817
	s-0.929,4.96-2.781,6.812c-1.853,1.853-4.125,2.781-6.812,2.781C320.402,219.156,318.129,218.228,316.276,216.375z"/>
<path fill="#7E80CE" d="M375.974,473.321h-95.735c-3.325,0-6.021-2.696-6.021-6.021v-95.588c0-3.325,2.696-6.021,6.021-6.021h95.735
	V473.321z"/>
<path fill="#EBF0F3" d="M615.73,473.321H375.974V365.692h239.756c5.551,0,10.051,4.5,10.051,10.051v87.528
	C625.78,468.82,621.281,473.321,615.73,473.321z"/>
<g>
	<rect x="393.093" y="444.375" fill="#D5D6DB" width="215.616" height="11.382"/>
	<rect x="393.093" y="413.858" fill="#D5D6DB" width="69.553" height="11.382"/>
	<rect x="393.093" y="383.391" fill="#D5D6DB" width="120.769" height="11.382"/>
</g>
<path fill="#3A556A" d="M331.156,434.62h-16.569v-8.175c0-2.979,0.38-5.212,1.147-6.703c0.761-1.487,2.375-3.508,4.85-6.051
	l7.411-7.627c1.091-1.31,1.635-2.998,1.635-5.069c0-2.075-0.582-3.799-1.744-5.182c-1.16-1.379-2.688-2.069-4.58-2.069
	c-1.887,0-3.468,0.82-4.742,2.455c-1.269,1.636-2.05,3.795-2.341,6.486h-17.334c0.801-7.266,3.453-12.972,7.958-17.116
	c4.506-4.14,10.157-6.215,16.953-6.215c6.792,0,12.315,1.853,16.569,5.562c4.249,3.705,6.377,8.827,6.377,15.368
	c0,2.91-0.365,5.068-1.092,6.486c-0.727,1.417-1.234,2.435-1.527,3.053c-0.292,0.618-0.963,1.546-2.016,2.78
	c-1.058,1.235-1.763,2.035-2.129,2.396c-1.744,1.744-3.393,3.379-4.96,4.905c-1.562,1.527-2.599,2.781-3.103,3.759
	c-0.514,0.983-0.766,2.456-0.766,4.417v6.538H331.156z M316.276,455.387c-1.853-1.853-2.781-4.125-2.781-6.812
	c0-2.686,0.928-4.96,2.781-6.816c1.853-1.853,4.125-2.777,6.812-2.777c2.687,0,4.96,0.925,6.812,2.777
	c1.853,1.857,2.781,4.129,2.781,6.816s-0.929,4.961-2.781,6.812c-1.853,1.853-4.125,2.781-6.812,2.781
	C320.402,458.168,318.129,457.239,316.276,455.387z"/>
</svg>
