<?xml version="1.0" encoding="utf-8"?>
<!-- Generator: Adobe Illustrator 16.0.0, SVG Export Plug-In . SVG Version: 6.00 Build 0)  -->
<!DOCTYPE svg PUBLIC "-//W3C//DTD SVG 1.1//EN" "http://www.w3.org/Graphics/SVG/1.1/DTD/svg11.dtd">
<svg version="1.1" id="Layer_1" xmlns="http://www.w3.org/2000/svg" xmlns:xlink="http://www.w3.org/1999/xlink" x="0px" y="0px"
	 width="900px" height="600px" viewBox="0 0 900 600" enable-background="new 0 0 900 600" xml:space="preserve">
<circle fill="#71A2C5" cx="450.001" cy="300" r="300"/>
<path fill="#FFE18B" d="M652.646,279.611l-33.476-33.477c-4.861-4.86-8.101-11.88-8.101-18.899v-47.516
	c0-20.518-16.739-37.256-37.256-37.256h-47.517c-7.02,0-14.04-2.7-18.898-8.1l-33.479-33.478c-14.579-14.579-38.337-14.579-52.917,0
	l-33.478,33.477c-4.86,4.86-11.879,8.1-18.898,8.1h-47.516c-20.518,0-37.256,16.738-37.256,37.256v47.516
	c0,7.02-2.7,14.039-8.1,18.899l-33.478,33.478c-14.579,14.579-14.579,38.336,0,52.917l33.477,33.477
	c4.86,4.859,8.1,11.879,8.1,18.898v47.516c0,20.52,16.738,37.258,37.256,37.258h47.516c7.02,0,14.039,2.699,18.899,8.098
	l33.478,33.479c7.019,7.02,16.738,10.799,26.457,10.799c9.72,0,18.899-3.779,26.458-10.799l33.477-33.479
	c4.86-4.859,11.881-8.098,18.899-8.098h47.516c20.519,0,37.256-16.738,37.256-37.258v-47.516c0-7.02,2.7-14.039,8.101-18.898
	l33.476-33.477C667.225,317.947,667.225,294.189,652.646,279.611z"/>
<path fill="#DFB741" d="M633.208,298.51l-33.478-33.477c-10.259-10.259-15.659-23.758-15.659-37.797v-47.515
	c0-5.94-4.86-10.259-10.258-10.259h-47.517c-14.579,0-28.079-5.399-37.796-15.66l-33.478-33.477c-2.7-2.7-5.939-3.24-7.56-3.24
	c-1.622,0-4.861,0.54-7.56,3.24l-33.478,33.477c-10.259,10.259-23.758,15.66-37.796,15.66h-47.516
	c-5.938,0-10.259,4.86-10.259,10.259v47.515c0,14.579-5.398,28.078-15.659,37.797l-33.477,33.477c-3.78,3.779-3.78,10.799,0,14.58
	l33.477,33.477c10.259,10.258,15.659,23.758,15.659,37.797v47.516c0,5.939,4.86,10.258,10.259,10.258h47.516
	c14.579,0,28.077,5.4,37.796,15.66l33.478,33.477c2.698,2.699,5.938,3.24,7.56,3.24c1.62,0,4.859-0.541,7.56-3.24l33.478-33.477
	c10.257-10.258,23.756-15.66,37.796-15.66h47.517c5.938,0,10.258-4.859,10.258-10.258v-47.516c0-14.58,5.399-28.078,15.659-37.797
	l33.478-33.477C637.527,309.309,637.527,302.828,633.208,298.51z M592.171,339.545c-12.421,12.42-18.899,28.619-18.899,45.898
	v46.977h-46.978c-17.278,0-33.478,6.479-45.896,18.898l-32.938,32.939l-33.476-33.479c-12.419-12.42-28.618-18.898-45.897-18.898
	h-46.977v-46.977c0-17.279-6.479-33.477-18.899-45.896l-32.938-32.938l33.477-33.477c12.418-12.418,18.899-28.618,18.899-45.896
	v-46.978h46.977c17.28,0,33.477-6.479,45.897-18.899l32.937-32.938l33.478,33.477c12.418,12.418,28.618,18.899,45.896,18.899h46.977
	v46.977c0,17.279,6.479,33.477,18.899,45.896l32.938,32.938L592.171,339.545z"/>
<path fill="#FFFFFF" d="M424.243,225.614c7.019,8.1,10.8,17.279,10.8,28.618s-3.781,20.518-11.34,28.618
	c-7.56,8.1-16.739,11.879-27.538,11.879c-10.799,0-19.979-3.78-27.538-11.879c-7.02-8.1-10.799-17.279-10.799-28.618
	s3.78-20.518,10.799-28.618c7.559-8.1,16.739-11.879,27.538-11.879C408.044,213.736,417.224,218.056,424.243,225.614z
	 M527.915,218.056l-130.13,178.186h-32.938l130.13-177.646h32.938V218.056z M407.504,267.731c2.7-3.239,4.32-7.56,4.32-12.958
	c0-4.86-1.62-9.179-4.32-12.959c-2.7-3.239-6.479-5.398-10.799-5.398s-7.559,1.62-10.259,5.398c-2.7,3.24-4.32,7.56-4.32,12.959
	c0,4.86,1.62,9.179,4.32,12.958c2.7,3.24,6.479,5.399,10.799,5.399C401.025,273.131,404.805,271.511,407.504,267.731z
	 M525.216,328.747c7.019,8.099,10.799,17.278,10.799,28.618c0,11.338-3.78,21.059-11.34,28.617
	c-7.561,8.102-16.738,11.881-27.537,11.881s-19.979-3.779-27.538-11.881c-7.02-8.1-10.799-17.279-10.799-28.617
	c0-11.34,3.779-20.52,11.339-28.618s16.739-11.879,27.537-11.879C509.017,316.868,518.196,321.188,525.216,328.747z
	 M509.017,371.404c2.7-3.24,4.319-7.561,4.319-12.957c0-4.861-1.619-9.18-4.319-12.961c-2.699-3.238-6.479-5.396-10.8-5.396
	c-4.319,0-7.559,1.619-10.259,5.396c-2.699,3.781-4.32,7.561-4.32,12.961c0,4.859,1.621,9.178,4.32,12.957
	c2.7,3.238,6.479,5.4,10.799,5.4C503.077,376.805,506.317,374.643,509.017,371.404z"/>
</svg>
